<svg width="100" height="89" viewBox="0 0 100 89" fill="none" xmlns="http://www.w3.org/2000/svg">
<path d="M81.53 64.59H14.94C14.94 64.59 3.44 52.24 18.92 46.42C18.92 46.42 21.05 35.06 32.41 35.49C43.77 35.92 44.48 44.58 44.48 44.58C44.48 44.58 53.43 39.47 57.54 47.56C57.54 47.56 64.43 41.15 72.76 45.03C76.89 46.96 79.98 50.69 81.15 55.1C81.78 57.54 82.11 60.71 81.53 64.59Z" stroke="white" stroke-width="2" stroke-miterlimit="10" stroke-linecap="round"/>
<path d="M81.53 64.59H90.4C90.4 64.59 95.76 46.39 83.65 48.66C83.65 48.66 81.38 27.77 61.56 39.38C61.56 39.38 53.7 31.89 43.59 41.69" stroke="white" stroke-width="2" stroke-miterlimit="10" stroke-linecap="round"/>
<path d="M20.12 42.99L19.82 40.52H17.3C17.3 40.52 16.01 36.26 17.68 33.45H20.8C20.8 33.45 21.96 29.03 23.34 27.85" stroke="white" stroke-width="2" stroke-miterlimit="10" stroke-linecap="round"/>
<path d="M51.35 16.26L52.15 13.86C52.15 13.86 56.6 13.98 58.74 16.45L58.03 18.59L57.94 18.87" stroke="white" stroke-width="2" stroke-miterlimit="10" stroke-linecap="round"/>
<path d="M69.1 29.14L71.68 27.38C71.48 24.12 68.02 21.32 68.02 21.32L64.93 23.42" stroke="white" stroke-width="2" stroke-miterlimit="10" stroke-linecap="round"/>
<path d="M71.11 32.06L72.11 34.33L74.52 33.59C74.52 33.59 75.37 34.86 75.92 36.56" stroke="white" stroke-width="2" stroke-miterlimit="10" stroke-linecap="round"/>
<path d="M35.39 17.91L34.7 15.48C34.7 15.48 38.44 13.07 41.6 13.91L42.14 15.82" stroke="white" stroke-width="2" stroke-miterlimit="10" stroke-linecap="round"/>
<path d="M22.01 29.95L23.33 27.85L21.37 26.26C21.37 26.26 23.05 22.14 26.11 21.01L27.95 22.5" stroke="white" stroke-width="2" stroke-miterlimit="10" stroke-linecap="round"/>
<path d="M27.96 22.5C27.96 22.5 29.59 20.88 31.57 19.68C33.43 18.56 35.16 17.98 35.39 17.91" stroke="white" stroke-width="2" stroke-miterlimit="10" stroke-linecap="round"/>
<path d="M42.22 16.1C42.22 16.1 46.53 14.83 51.35 16.26" stroke="white" stroke-width="2" stroke-miterlimit="10" stroke-linecap="round"/>
<path d="M57.93 18.87C57.93 18.87 62.53 20.76 64.93 23.43L66.51 22.36" stroke="white" stroke-width="2" stroke-miterlimit="10" stroke-linecap="round"/>
<path d="M72.06 34.2C72.04 34.01 71.85 33.76 71.75 33.47C71.1 31.66 69.11 29.14 69.11 29.14" stroke="white" stroke-width="2" stroke-miterlimit="10" stroke-linecap="round"/>
<path d="M39.28 37.23C40.78 34.64 43.58 32.9 46.79 32.9C49.75 32.9 52.37 34.39 53.93 36.65" stroke="white" stroke-width="2" stroke-miterlimit="10" stroke-linecap="round"/>
</svg>
